# xmcd
#
# Track frame offsets:
#	150
#	14142
#	30437
#	46650
#	63287
#	82357
#	98752
#	113475
#	127887
#	145312
#	163005
#	175350
#	188367
#	202535
#	218087
#	233207
#	244112
#	258665
#	270310
#	289217
#	306915
#
# Disc length: 4290
#
# Revision: 1
# Processed by: cddbd v1.5.1PL0 Copyright (c) Steve Scherf et al.
# Submitted via: CDex 1.50beta9
# Normalized: r0:TDELIM( - )
#
DISCID=1f10c015
DTITLE=Various Artist - CDX Volume 156 - March 1997
DYEAR=1997
DGENRE=Country
TTITLE0=Tammy Graham - A Dozen Red Roses
TTITLE1=Tracy Lawrence - Better Man, Better Off
TTITLE2=David Lee Murphy - Breakfast In Birmingham
TTITLE3=Jeff Carson - Do It Again
TTITLE4=John Michael Montgomery - I Miss You A Little
TTITLE5=Rick Trevino - I Only Get This Way With You
TTITLE6=Holly Dunn - Leave One Bridge Standing
TTITLE7=Lee Ann Womack - Never Again Again
TTITLE8=George Strait - One Night At A Time
TTITLE9=Suzy Bogguss - She Said He Heard
TTITLE10=Kentucky Headhunters - Singin' The Blues
TTITLE11=Sawyer Brown - Six Days On The Road
TTITLE12=Rhett Akins - Somebody Knew
TTITLE13=Paul Brandt - Take It From Me
TTITLE14=Leann Rimes - The Light In Your Eyes
TTITLE15=Daryle Singletary - The Used To Be's
TTITLE16=Joe Diffie - This Is Your Brain
TTITLE17=Sara Evans - True Lies
TTITLE18=Jeff Wood - Use Mine
TTITLE19=Brooks and Dunn - Why Would I Say Goodbye
TTITLE20=Marvin Dale - Devil In A Cowboy Hat
EXTD=YEAR: 1997
EXTT0=
EXTT1=
EXTT2=
EXTT3=
EXTT4=
EXTT5=
EXTT6=
EXTT7=
EXTT8=
EXTT9=
EXTT10=
EXTT11=
EXTT12=
EXTT13=
EXTT14=
EXTT15=
EXTT16=
EXTT17=
EXTT18=
EXTT19=
EXTT20=
PLAYORDER=
